<?xml version="1.0" encoding="UTF-8" standalone="no"?>
<svg
   viewBox="0 0 22 22"
   version="1.1"
   id="svg9"
   sodipodi:docname="input-keyboard-virtual.svg"
   inkscape:export-filename="/home/bene/Programmierkram/GitHub/G910-gui/assets/input-keyboard-virtual.png"
   inkscape:export-xdpi="2234.1799"
   inkscape:export-ydpi="2234.1799"
   inkscape:version="1.1 (1:1.1+202105261517+ce6663b3b7)"
   xmlns:inkscape="http://www.inkscape.org/namespaces/inkscape"
   xmlns:sodipodi="http://sodipodi.sourceforge.net/DTD/sodipodi-0.dtd"
   xmlns="http://www.w3.org/2000/svg"
   xmlns:svg="http://www.w3.org/2000/svg">
  <defs
     id="defs13" />
  <sodipodi:namedview
     id="namedview11"
     pagecolor="#919191"
     bordercolor="#ffffff"
     borderopacity="1"
     inkscape:pageshadow="0"
     inkscape:pageopacity="0"
     inkscape:pagecheckerboard="true"
     showgrid="false"
     inkscape:zoom="45.254834"
     inkscape:cx="10.794427"
     inkscape:cy="9.8773978"
     inkscape:window-width="3440"
     inkscape:window-height="1373"
     inkscape:window-x="0"
     inkscape:window-y="0"
     inkscape:window-maximized="1"
     inkscape:current-layer="g7" />
  <style
     type="text/css"
     id="current-color-scheme">
        .ColorScheme-Text {
            color:#232629;
        }
    </style>
  <g
     class="ColorScheme-Text"
     fill="currentColor"
     id="g7"
     style="fill:#e6e6e6"
     transform="matrix(1.2145569,0,0,1.2145569,-2.3601259,-4.1819613)">
    <path
       d="m 2.1479444,6.102633 v 8.852056 l 2.9506852,3.934247 V 14.954689 H 19.852056 V 6.102633 Z M 3.1315061,7.0861947 H 18.868494 V 13.971127 H 3.1315061 Z"
       id="path3"
       style="display:inline;fill:#e6e6e6;stroke:#000000;stroke-width:0.25606046;stroke-miterlimit:4;stroke-dasharray:none;stroke-opacity:1;stroke-dashoffset:0;stroke-linecap:round;stroke-linejoin:round;paint-order:markers fill stroke" />
    <path
       d="M 4.1150679,8.0697565 V 9.0533182 H 5.0986296 V 8.0697565 Z m 1.9671234,0 V 9.0533182 H 7.0657531 V 8.0697565 Z m 1.9671235,0 V 9.0533182 H 9.0328765 V 8.0697565 Z m 1.9671232,0 V 9.0533182 H 11 V 8.0697565 Z m 1.967124,0 v 0.9835617 h 0.983561 V 8.0697565 Z m 1.967123,0 v 0.9835617 h 0.983562 V 8.0697565 Z m 1.967124,0 v 0.9835617 h 1.967123 V 8.0697565 Z M 4.1150679,10.03688 v 0.983562 H 6.0821913 V 10.03688 Z m 2.9506852,0 v 0.983562 H 8.0493148 V 10.03688 Z m 1.9671234,0 v 0.983562 H 10.016438 V 10.03688 Z m 1.9671235,0 v 0.983562 h 0.983562 V 10.03688 Z m 1.967123,0 v 0.983562 h 0.983562 V 10.03688 Z m 1.967124,0 v 0.983562 h 2.950685 V 10.03688 Z M 4.1150679,12.004003 v 0.983562 h 1.9671234 v -0.983562 z m 2.9506852,0 v 0.983562 h 7.8684939 v -0.983562 z m 8.8520559,0 v 0.983562 h 1.967123 v -0.983562 z"
       id="path5"
       style="fill:#e6e6e6;stroke-width:0.983562" />
  </g>
  <circle
     style="opacity:0.660109;fill:#00ffff;fill-opacity:1;stroke:none;stroke-width:0.577351;stroke-miterlimit:4;stroke-dasharray:none"
     id="path16358"
     cx="10.918064"
     cy="8.5915661"
     r="6.2914572" />
  <text
     xml:space="preserve"
     style="font-size:12.5852px;line-height:125%;font-family:sans-serif;-inkscape-font-specification:sans-serif;letter-spacing:0px;word-spacing:0px;fill:#ffffff;stroke:#000000;stroke-width:0.262052;stroke-linecap:butt;stroke-linejoin:miter;stroke-miterlimit:4;stroke-dasharray:none;stroke-opacity:1"
     x="10.68455"
     y="13.231115"
     id="text2432"><tspan
       sodipodi:role="line"
       id="tspan2430"
       x="10.68455"
       y="13.231115"
       style="font-style:normal;font-variant:normal;font-weight:normal;font-stretch:normal;font-family:'Tibetan Machine Uni';-inkscape-font-specification:'Tibetan Machine Uni';text-align:center;text-anchor:middle;fill:#ffffff;fill-opacity:1;stroke:none;stroke-width:0.262052;stroke-miterlimit:4;stroke-dasharray:none">G</tspan></text>
</svg>
